{
  "extensionsUsed": [
    "KHR_materials_transmission",
    "KHR_materials_clearcoat",
    "KHR_materials_ior",
    "KHR_materials_specular",
    "KHR_materials_emissive_strength",
    "KHR_texture_transform"
  ],
  "accessors": [
    {
      "bufferView": 0,
      "componentType": 5126,
      "count": 462,
      "type": "VEC3",
      "max": [
        -122.41894,
        38.11013,
        -83.87631
      ],
      "min": [
        -192.27814,
        0.0,
        -160.53624
      ]
    },
    {
      "bufferView": 1,
      "componentType": 5125,
      "count": 1344,
      "type": "SCALAR",
      "max": [
        461.0
      ],
      "min": [
        0.0
      ]
    },
    {
      "bufferView": 2,
      "componentType": 5126,
      "count": 462,
      "type": "VEC3",
      "max": [
        0.86156946,
        1.0,
        0.860363
      ],
      "min": [
        -0.8571672,
        -1.0,
        -0.8571672
      ]
    },
    {
      "bufferView": 3,
      "componentType": 5126,
      "count": 462,
      "type": "VEC2",
      "max": [
        3637.319,
        6310.3325
      ],
      "min": [
        -3361.013,
        -2257.5923
      ]
    },
    {
      "bufferView": 4,
      "componentType": 5126,
      "count": 399,
      "type": "VEC3",
      "max": [
        -59.30418,
        70.5,
        -121.5456
      ],
      "min": [
        -130.48741,
        0.0,
        -189.66823
      ]
    },
    {
      "bufferView": 5,
      "componentType": 5125,
      "count": 1152,
      "type": "SCALAR",
      "max": [
        398.0
      ],
      "min": [
        0.0
      ]
    },
    {
      "bufferView": 6,
      "componentType": 5126,
      "count": 399,
      "type": "VEC3",
      "max": [
        0.8571672,
        1.0,
        0.860363
      ],
      "min": [
        -0.860363,
        -1.0,
        -0.8571672
      ]
    },
    {
      "bufferView": 7,
      "componentType": 5126,
      "count": 399,
      "type": "VEC2",
      "max": [
        4095.473,
        5352.4077
      ],
      "min": [
        -6600.0,
        -2476.294
      ]
    },
    {
      "bufferView": 8,
      "componentType": 5126,
      "count": 510,
      "type": "VEC3",
      "max": [
        -13.886088,
        75.5,
        -55.902126
      ],
      "min": [
        -86.883255,
        0.0,
        -138.13509
      ]
    },
    {
      "bufferView": 9,
      "componentType": 5125,
      "count": 1464,
      "type": "SCALAR",
      "max": [
        509.0
      ],
      "min": [
        0.0
      ]
    },
    {
      "bufferView": 10,
      "componentType": 5126,
      "count": 510,
      "type": "VEC3",
      "max": [
        0.8571672,
        1.0,
        0.85799545
      ],
      "min": [
        -0.8571672,
        -1.0,
        -0.8571672
      ]
    },
    {
      "bufferView": 11,
      "componentType": 5126,
      "count": 510,
      "type": "VEC2",
      "max": [
        7050.0,
        7100.0
      ],
      "min": [
        -4050.0,
        -6100.0
      ]
    },
    {
      "bufferView": 12,
      "componentType": 5126,
      "count": 327,
      "type": "VEC3",
      "max": [
        -25.386002,
        34.5,
        -82.74668
      ],
      "min": [
        -54.890087,
        5.0,
        -113.61933
      ]
    },
    {
      "bufferView": 13,
      "componentType": 5125,
      "count": 1062,
      "type": "SCALAR",
      "max": [
        326.0
      ],
      "min": [
        0.0
      ]
    },
    {
      "bufferView": 14,
      "componentType": 5126,
      "count": 327,
      "type": "VEC3",
      "max": [
        0.8571672,
        1.0,
        0.8571672
      ],
      "min": [
        -0.8571672,
        -1.0,
        -0.8571672
      ]
    },
    {
      "bufferView": 15,
      "componentType": 5126,
      "count": 327,
      "type": "VEC2",
      "max": [
        2950.0,
        2399.9968
      ],
      "min": [
        -2199.9646,
        -201.00931
      ]
    },
    {
      "bufferView": 16,
      "componentType": 5126,
      "count": 492,
      "type": "VEC3",
      "max": [
        -118.055984,
        14.352474,
        -28.24432
      ],
      "min": [
        -157.79999,
        -0.010526617,
        -87.58533
      ]
    },
    {
      "bufferView": 17,
      "componentType": 5125,
      "count": 492,
      "type": "SCALAR",
      "max": [
        491.0
      ],
      "min": [
        0.0
      ]
    },
    {
      "bufferView": 18,
      "componentType": 5126,
      "count": 492,
      "type": "VEC3",
      "max": [
        0.9103352,
        1.0,
        0.8788607
      ],
      "min": [
        -0.8666065,
        -1.0,
        -0.95471835
      ]
    }
  ],
  "asset": {
    "version": "2.0"
  },
  "buffers": [
    {
      "uri": "data:application/octet-stream;base64,",
      "byteLength": 5544
    },
    {
      "uri": "data:application/octet-stream;base64,",
      "byteLength": 5376
    },
    {
      "uri": "data:application/octet-stream;base64,",
      "byteLength": 5544
    },
    {
      "uri": "data:application/octet-stream;base64,",
      "byteLength": 3696
    },
    {
      "uri": "data:application/octet-stream;base64,",
      "byteLength": 4788
    },
    {
      "uri": "data:application/octet-stream;base64,",
      "byteLength": 4608
    },
    {
      "uri": "data:application/octet-stream;base64,",
      "byteLength": 4788
    },
    {
      "uri": "data:application/octet-stream;base64,",
      "byteLength": 3192
    },
    {
      "uri": "data:application/octet-stream;base64,",
      "byteLength": 6120
    },
    {
      "uri": "data:application/octet-stream;base64,",
      "byteLength": 5856
    },
    {
      "uri": "data:application/octet-stream;base64,",
      "byteLength": 6120
    },
    {
      "uri": "data:application/octet-stream;base64,",
      "byteLength": 4080
    },
    {
      "uri": "data:application/octet-stream;base64,",
      "byteLength": 3924
    },
    {
      "uri": "data:application/octet-stream;base64,",
      "byteLength": 4248
    },
    {
      "uri": "data:application/octet-stream;base64,",
      "byteLength": 3924
    },
    {
      "uri": "data:application/octet-stream;base64,",
      "byteLength": 2616
    },
    {
      "uri": "data:application/octet-stream;base64,",
      "byteLength": 5904
    },
    {
      "uri": "data:application/octet-stream;base64,",
      "byteLength": 1968
    },
    {
      "uri": "data:application/octet-stream;base64,",
      "byteLength": 5904
    }
  ],
  "bufferViews": [
    {
      "buffer": 0,
      "byteLength": 5544,
      "target": 34962
    },
    {
      "buffer": 1,
      "byteLength": 5376,
      "target": 34963
    },
    {
      "buffer": 2,
      "byteLength": 5544,
      "target": 34962
    },
    {
      "buffer": 3,
      "byteLength": 3696,
      "target": 34962
    },
    {
      "buffer": 4,
      "byteLength": 4788,
      "target": 34962
    },
    {
      "buffer": 5,
      "byteLength": 4608,
      "target": 34963
    },
    {
      "buffer": 6,
      "byteLength": 4788,
      "target": 34962
    },
    {
      "buffer": 7,
      "byteLength": 3192,
      "target": 34962
    },
    {
      "buffer": 8,
      "byteLength": 6120,
      "target": 34962
    },
    {
      "buffer": 9,
      "byteLength": 5856,
      "target": 34963
    },
    {
      "buffer": 10,
      "byteLength": 6120,
      "target": 34962
    },
    {
      "buffer": 11,
      "byteLength": 4080,
      "target": 34962
    },
    {
      "buffer": 12,
      "byteLength": 3924,
      "target": 34962
    },
    {
      "buffer": 13,
      "byteLength": 4248,
      "target": 34963
    },
    {
      "buffer": 14,
      "byteLength": 3924,
      "target": 34962
    },
    {
      "buffer": 15,
      "byteLength": 2616,
      "target": 34962
    },
    {
      "buffer": 16,
      "byteLength": 5904,
      "target": 34962
    },
    {
      "buffer": 17,
      "byteLength": 1968,
      "target": 34963
    },
    {
      "buffer": 18,
      "byteLength": 5904,
      "target": 34962
    }
  ],
  "materials": [
    {
      "name": "Plastic (1)",
      "extensions": {
        "KHR_materials_transmission": {
          "transmissionFactor": 0.94
        },
        "KHR_materials_clearcoat": {},
        "KHR_materials_ior": {
          "ior": 1.5
        },
        "KHR_materials_specular": {
          "specularFactor": 1.0,
          "specularColorFactor": [
            1.0,
            1.0,
            1.0
          ]
        }
      },
      "pbrMetallicRoughness": {
        "baseColorFactor": [
          0.98039216,
          0.98039216,
          0.98039216,
          1.0
        ],
        "metallicFactor": 0.0,
        "roughnessFactor": 0.0
      }
    },
    {
      "name": "Plastic (1)",
      "extensions": {
        "KHR_materials_transmission": {
          "transmissionFactor": 0.94
        },
        "KHR_materials_clearcoat": {},
        "KHR_materials_ior": {
          "ior": 1.5
        },
        "KHR_materials_specular": {
          "specularFactor": 1.0,
          "specularColorFactor": [
            1.0,
            1.0,
            1.0
          ]
        }
      },
      "pbrMetallicRoughness": {
        "baseColorFactor": [
          0.98039216,
          0.98039216,
          0.98039216,
          1.0
        ],
        "metallicFactor": 0.0,
        "roughnessFactor": 0.0
      }
    }
  ],
  "meshes": [
    {
      "primitives": [
        {
          "attributes": {
            "POSITION": 0,
            "NORMAL": 2,
            "TEXCOORD_0": 3
          },
          "indices": 1,
          "material": 0
        }
      ]
    },
    {
      "primitives": [
        {
          "attributes": {
            "POSITION": 4,
            "NORMAL": 6,
            "TEXCOORD_0": 7
          },
          "indices": 5,
          "material": 0
        }
      ]
    },
    {
      "primitives": [
        {
          "attributes": {
            "POSITION": 8,
            "NORMAL": 10,
            "TEXCOORD_0": 11
          },
          "indices": 9,
          "material": 0
        }
      ]
    },
    {
      "primitives": [
        {
          "attributes": {
            "POSITION": 12,
            "NORMAL": 14,
            "TEXCOORD_0": 15
          },
          "indices": 13,
          "material": 0
        }
      ]
    },
    {
      "primitives": [
        {
          "attributes": {
            "POSITION": 16,
            "NORMAL": 18
          },
          "indices": 17,
          "material": 1
        }
      ]
    }
  ],
  "nodes": [
    {
      "mesh": 0
    },
    {
      "children": [
        0,
        2,
        3,
        4,
        5
      ],
      "name": "gebied"
    },
    {
      "mesh": 1
    },
    {
      "mesh": 2
    },
    {
      "mesh": 3
    },
    {
      "mesh": 4
    }
  ],
  "samplers": [
    {
      "magFilter": 9729,
      "minFilter": 9729
    }
  ],
  "scene": 0,
  "scenes": [
    {
      "nodes": [
        1
      ],
      "extensions": {}
    }
  ],
  "extensions": {}
}